<svg xmlns="http://www.w3.org/2000/svg" viewBox="0 0 412.33 473.62"><defs><style>.cls-1,.cls-2{fill:#f7bf21;}.cls-2{opacity:0.5;}</style></defs><g id="Layer_2" data-name="Layer 2"><g id="Layer_1-2" data-name="Layer 1"><path class="cls-1" d="M290.05,93l-.25.05.08,0h.17Z"/><path class="cls-1" d="M266.49,184.63a9.21,9.21,0,0,1-2.72-3.62Q265.09,182.84,266.49,184.63Z"/><path class="cls-1" d="M396.61,98.67H378.87V85.94a5,5,0,0,0-3.77-4.86l-.05,0a54.16,54.16,0,0,0-6.31-1.39S354,76,331.94,76.61a261.13,261.13,0,0,0-39.73,4.19s-2.51.56-3.14.77a3.31,3.31,0,0,0-1.14.55c-.26.2-.57.45-.57.61l.34,9A2.37,2.37,0,0,0,289.15,93a1.8,1.8,0,0,0,.73,0h.24l.08,0c2.31-.42,7-1.33,9.49-1.75s7.05-2.39,24.31-2.89c15.56-.46,39.75,2.15,44.32,2.68v15a7.83,7.83,0,0,0-.07,1.08V258.1h-.09c-17.58-2.43-41.67,0-41.67,0-59.5,4.09-94.29,24.43-94.29,24.43s-16.48,9-20,14a1.59,1.59,0,0,0-.15.21V119.58s11.09-9.53,32.16-16.17l.4-.13h0a5.2,5.2,0,0,0,3.58-4.82,5.37,5.37,0,0,0-5.55-5.15,5.84,5.84,0,0,0-2.3.47h0c-1.32.41-3.11,1-5.21,1.73-.41.14-6.09,2.12-10.73,4.14a129.07,129.07,0,0,0-18.17,9.92h-.05v-.09A129.83,129.83,0,0,0,188,99.54c-1.63-.7-3.39-1.41-5-2V21.71A21.77,21.77,0,0,0,161.25,0H75A21.78,21.78,0,0,0,53.27,21.71V77.85a95.18,95.18,0,0,0-9.88,1.74A53.2,53.2,0,0,0,37.09,81L37,81a5,5,0,0,0-3.78,4.86v13H15.72a8.39,8.39,0,0,0-8.37,8.36V296.66A8.4,8.4,0,0,0,15.72,305c6.22,0,14.29-.11,20.43-.25.42,0,1.15,0,2.24-.06,2-.09,2.64-.22,4.48-.26l1.52,0c2.33-.14,64.2-3.56,138,10.65v.06c2.6,11.57,15.17,13.08,21,13.14,1.12.09,2.27.14,3.44.14s2.55-.06,3.78-.18h.08c6.2-.3,17.11-2.37,19.52-13.1,75.35-14.55,138.38-10.71,138.38-10.71l2.27.09c1.15,0,2.34,0,3.56.08l2.31.1,19.89.14A8.39,8.39,0,0,0,405,296.5V107A8.39,8.39,0,0,0,396.61,98.67ZM65.22,21.55a9.94,9.94,0,0,1,9.91-9.91h86.12a9.94,9.94,0,0,1,9.92,9.91V104.9a9.94,9.94,0,0,1-9.92,9.91h-6.84a6.6,6.6,0,0,0-6.59,6.59v5.52a5,5,0,0,0,.08,1,0,0,0,0,0,0,0l.17,7.77c-1-1.08-2.1-2.15-3.13-3.22l-4.44-4.57h0l-11.39-11.53a5.34,5.34,0,0,0-3.12-1.53H75.13a9.94,9.94,0,0,1-9.91-9.91Zm135.33,98V296.5c-3.28-4.55-17.44-12.45-19.84-13.78v-.2s-34.78-20.34-94.28-24.43c0,0-24.1-2.43-41.68,0l-.23,0V107.2a8.36,8.36,0,0,0-.69-3.32v-13c1.45-.16,4.91-.55,9.45-1v16.24A21.79,21.79,0,0,0,75,127.87h48.14l25.45,21.64.55.54c2.89,2.63,3.35,3.85,4.79,3.85h.26a5.72,5.72,0,0,0,5.69-5.69V127.87h1.38a21.39,21.39,0,0,0,9.92-2.42A21.82,21.82,0,0,0,182.77,109c11.58,5.38,17.6,10.54,17.6,10.54l.29.08Z"/><path class="cls-1" d="M316.2,149.54a80.69,80.69,0,0,1-16.92,46.06q4.05,3.14,8.32,6a143.1,143.1,0,0,0,12.85,7.65l1.64,1.1A8.46,8.46,0,0,1,324.4,222l-1,1.51a5.94,5.94,0,0,1-4.39,2.63l-.36,0c-.14,0-.31,0-.48-.07a1.69,1.69,0,0,1-.4-.12l-.21-.1q-2.93-1.36-5.76-2.91a139.09,139.09,0,0,1-23.5-15.85,78,78,0,0,1-35.86,17.44c-.74.15-1.48.3-2.23.41h-.41a8.71,8.71,0,0,1-8.71-8.72,6.16,6.16,0,0,1,0-.75.43.43,0,0,1,0-.16,7.26,7.26,0,0,1,.24-1.33,2.29,2.29,0,0,1,.09-.31,5.49,5.49,0,0,1,.23-.65,2,2,0,0,1,1.49-1.23l.11,0h.1l.5-.1a68.62,68.62,0,0,0,10.46-2.85,71.16,71.16,0,0,0,22-12.75,148.85,148.85,0,0,1-9.92-11.49q-1.39-1.78-2.72-3.62h0a9,9,0,0,1-.72-3.53,9.15,9.15,0,0,1,1.83-5.47c.09-.12.18-.24.28-.35l.28-.33c.1-.11.21-.23.31-.32a3.65,3.65,0,0,1,.36-.31,6.12,6.12,0,0,1,3.85-1.34,5.83,5.83,0,0,1,1.4.17,6,6,0,0,1,3.34,2q3.17,3.92,6.57,7.6c1.87,2,3.8,4,5.77,5.87a74,74,0,0,0,14.83-35.47H244.51a3.84,3.84,0,0,1-3.87-3.82,3.4,3.4,0,0,1,.27-1.36,10.23,10.23,0,0,1,.65-1.1c3.37-5.22,10.05-8.78,17.73-8.78h15.07l4.67-12a3.64,3.64,0,0,1,3.39-2.32h.93a8.14,8.14,0,0,1,8.15,8.15v5.45c0,.25,0,.49,0,.73h36.19a5.86,5.86,0,0,1,5.86,5.86,9.22,9.22,0,0,1-9.21,9.2Z"/><path class="cls-1" d="M273,91.87v8a4.24,4.24,0,0,1-8.48,0V94.74a28.69,28.69,0,0,0-4-14.72,29,29,0,0,0-24.95-14.28h-17.7c-.28,0-.55,0-.83,0l7.47,7.77,1,1.07a5.33,5.33,0,0,1,1,3.18,5.25,5.25,0,0,1-5.17,5.33,5,5,0,0,1-3.29-1.22h0l-.69-.71v0l-12-12.54-4.24-4.42a5.82,5.82,0,0,1-1.43-2.54,5.89,5.89,0,0,1,1.59-5.72l16.46-15.8.08-.09.76-.73s0,0,0,0a4.86,4.86,0,0,1,3-1,5,5,0,0,1,5,5.1,5.12,5.12,0,0,1-1.21,3.34,3.5,3.5,0,0,1-.54.55l-.17.14,0,.05-8.31,8a36.39,36.39,0,0,1,4.19-.24h15.95A36.79,36.79,0,0,1,273,91.87Z"/><path class="cls-1" d="M115,175.34v-8a4.24,4.24,0,0,1,8.48,0v5.11a28.69,28.69,0,0,0,4,14.72,29.05,29.05,0,0,0,24.94,14.29h17.71c.27,0,.55,0,.83,0l-7.47-7.77-1-1.07a5.36,5.36,0,0,1-1-3.19,5.25,5.25,0,0,1,5.16-5.33,5,5,0,0,1,3.3,1.22v0l.68.7v0l12.06,12.54,4.24,4.42a5.88,5.88,0,0,1-.17,8.26l-16.46,15.8a.24.24,0,0,1-.08.09l-.76.73h0a4.84,4.84,0,0,1-3,1,5,5,0,0,1-5-5.11,5.14,5.14,0,0,1,1.21-3.34,4.66,4.66,0,0,1,.54-.55l.18-.14,0,0,8.31-8a36.39,36.39,0,0,1-4.19.24H151.65A36.79,36.79,0,0,1,115,175.34Z"/><path class="cls-1" d="M148.64,96.55l0-.16h0l-.08-.22v0a.44.44,0,0,1-.05-.09l.05,0-21.92-67h0a.9.9,0,0,0-.08-.23.39.39,0,0,1,0-.06l-.12-.2a1.71,1.71,0,0,0-.11-.14,1.48,1.48,0,0,0-1.09-.49H110.94a1.47,1.47,0,0,0-1.24.86l-.1.32-21.93,67-.11.35a1.24,1.24,0,0,0,0,.27,1.48,1.48,0,0,0,1.2,1.44,1.53,1.53,0,0,0,.3,0h8.46a1.57,1.57,0,0,0,.24,0l.12,0,.29-.09h0a1.14,1.14,0,0,0,.22-.12l0,0a1.06,1.06,0,0,0,.21-.16s0,0,0,0a.46.46,0,0,1,.07-.07l.15-.18h0a1.61,1.61,0,0,0,.17-.28l.1-.33,4.46-14.61a.86.86,0,0,1,.09-.27,1.44,1.44,0,0,1,1-.85h26.41a1.46,1.46,0,0,1,1.44,1.18L137,96.86l.09.33a1.76,1.76,0,0,0,1.6,1.06h8.46l.24,0h0a0,0,0,0,0,0,0h0l.08,0a.8.8,0,0,0,.2-.07,1.15,1.15,0,0,0,.35-.22.67.67,0,0,0,.15-.14,1,1,0,0,0,.14-.17,1.19,1.19,0,0,0,.13-.25,1.13,1.13,0,0,0,.08-.24s0-.06,0-.08a2.11,2.11,0,0,0,0-.25A1.64,1.64,0,0,0,148.64,96.55Zm-20-24.83h-21a.55.55,0,0,1-.56-.55.18.18,0,0,1,0-.1.23.23,0,0,1,0-.11l10.48-34.37h0a.52.52,0,0,1,.53-.53.54.54,0,0,1,.54.53h0L129.12,71l0,.1a.41.41,0,0,1,0,.11A.54.54,0,0,1,128.63,71.72Z"/><path class="cls-2" d="M147.43,98.23l-.13,0h-.11Z"/><path class="cls-2" d="M148.52,96.1v0a.44.44,0,0,1-.05-.09Z"/><path class="cls-2" d="M126.6,29.08h0a.9.9,0,0,0-.08-.23A.65.65,0,0,1,126.6,29.08Z"/><path class="cls-1" d="M90.27,96a1.32,1.32,0,0,0-.18-.22,1.45,1.45,0,0,0-1-.43,1.73,1.73,0,0,0-.32,0,1.48,1.48,0,0,0,0,2.89,1.53,1.53,0,0,0,.3,0h0a1.45,1.45,0,0,0,1-.43,1.32,1.32,0,0,0,.18-.22,1.44,1.44,0,0,0,0-1.65Z"/><path class="cls-2" d="M148.47,96.05a.44.44,0,0,0,.05.09v0ZM147,98.24h0Zm.15,0h.11l.13,0Z"/><path class="cls-1" d="M98.59,97.83a.72.72,0,0,1-.15.11"/><path class="cls-1" d="M51.39,371.2v74.26a4.34,4.34,0,0,1-4.45,4.21H37.43A4.34,4.34,0,0,1,33,445.46V371.2A4.33,4.33,0,0,0,28.54,367H4.45A4.34,4.34,0,0,1,0,362.78v-7.06a4.34,4.34,0,0,1,4.45-4.21h77a4.34,4.34,0,0,1,4.45,4.21v7.06A4.34,4.34,0,0,1,81.41,367H55.84A4.33,4.33,0,0,0,51.39,371.2Z"/><path class="cls-1" d="M119.51,440.52a2.88,2.88,0,0,0-4.15-.38,21.69,21.69,0,0,1-5.89,3.35A33.67,33.67,0,0,1,97,445.87q-12.24,0-19.25-5.8t-7-16.45q0-12.47,9.88-19.5t28.06-7a26.63,26.63,0,0,1,3.7.29,2.74,2.74,0,0,0,3.13-3.4q-2.48-8.55-16.38-8.55a47.87,47.87,0,0,0-10.54,1.07,6.89,6.89,0,0,1-8.14-4.64l-.74-2.49A4.4,4.4,0,0,1,82.63,374a56.18,56.18,0,0,1,17.67-2.56q17.34,0,25.41,7.47t8.07,28.31v15.34q0,12.13,4.36,16.64a2.61,2.61,0,0,1,.07,3.64A7.39,7.39,0,0,1,135,445a20.6,20.6,0,0,1-6.15.84,10.16,10.16,0,0,1-6.87-2.68A15.91,15.91,0,0,1,119.51,440.52ZM116.16,413a2.73,2.73,0,0,0-2.37-2.63,29.58,29.58,0,0,0-4.43-.45q-21,0-21,13,0,7.86,7.83,9.32c10.37,1.93,19.92-6,19.92-16Z"/><path class="cls-1" d="M200.51,382.92a8.34,8.34,0,0,1-9.25,4.16,19.9,19.9,0,0,0-4.6-.52q-6.15,0-10.93,5.29A18.59,18.59,0,0,0,171,404.78v38.88a2.05,2.05,0,0,1-2.1,2H155.36a2.05,2.05,0,0,1-2.1-2V375.89a2.05,2.05,0,0,1,2.1-2h13.49a2.05,2.05,0,0,1,2.1,2h0a2.11,2.11,0,0,0,3.38,1.57q6.67-4.9,16.37-4.91a34.3,34.3,0,0,1,11.8,1.69,2,2,0,0,1,1.12,2.74Z"/><path class="cls-1" d="M244.15,373.73H223.61a9,9,0,0,0-9.29,8.79v3.57a1.49,1.49,0,0,0,1.53,1.44h10.6A1.5,1.5,0,0,1,228,389v55.09q0,8.25-5,11.42-3.5,2.25-11.51,2.9a8.08,8.08,0,0,0-7.64,7.83v5.94a1.51,1.51,0,0,0,1.56,1.45q20.19-.24,30-7.19,10.23-7.2,10.23-22.61V375.18A1.5,1.5,0,0,0,244.15,373.73Z"/><path class="cls-1" d="M282.52,356.26a10,10,0,0,1-2.1,5.78,8.16,8.16,0,0,1-6.93,3.3,6.07,6.07,0,0,1-.63-.07H235.71a7.46,7.46,0,0,1-6.62-2.34,10.74,10.74,0,0,1-2.87-7.93,9.9,9.9,0,0,1,2.1-5.76,8.2,8.2,0,0,1,6.93-3.3,5.87,5.87,0,0,1,.62.07H273a7.13,7.13,0,0,1,1.6-.07,7.59,7.59,0,0,1,5,2.39A10.73,10.73,0,0,1,282.52,356.26Z"/><path class="cls-1" d="M287.44,373.73H273a8.77,8.77,0,0,0-9,8.52v3.06a2.23,2.23,0,0,0,2.29,2.16h5.13a2.22,2.22,0,0,1,2.28,2.16v53.7A2.24,2.24,0,0,0,276,445.5h13.34a2.24,2.24,0,0,0,2.28-2.17V377.69A4.08,4.08,0,0,0,287.44,373.73Z"/><path class="cls-1" d="M398.69,445.2a4,4,0,0,1-4.05-3.84V400.24q0-14.14-13.38-14.14a14.7,14.7,0,0,0-7.65,2.21,14.36,14.36,0,0,0-4.52,4,3.65,3.65,0,0,0-.64,2.09v46.94a4,4,0,0,1-4.06,3.84h-9.58a4,4,0,0,1-4.06-3.84V397.62a10.73,10.73,0,0,0-3.47-8.4q-3.46-3.12-9.77-3.12a14.32,14.32,0,0,0-7.25,2.35,18.22,18.22,0,0,0-4.86,4,3.7,3.7,0,0,0-.84,2.36v46.56a4,4,0,0,1-4.06,3.84h-9a4.5,4.5,0,0,1-4.61-4.38V377.28a4,4,0,0,1,4.05-3.84h5.7a4.1,4.1,0,0,1,3.57,2h0a4.2,4.2,0,0,0,6,1.22,26.06,26.06,0,0,1,15.48-4.57q12.81,0,20.25,5.6a4.2,4.2,0,0,0,5,0,26.27,26.27,0,0,1,6.76-3.45,35.32,35.32,0,0,1,11.9-2.11q12.66,0,19.71,6.86t7,18.87v40a7.58,7.58,0,0,1-7.77,7.36Z"/></g></g></svg>